HIERARCHY
ROOT Hips
{
	OFFSET 0.000000 0.000000 0.000000 
	CHANNELS 6 Xposition Yposition Zposition Zrotation Yrotation Xrotation
	JOINT LeftUpLeg
	{
		OFFSET 1.363060 -1.794630 0.839290 
		CHANNELS 3 Zrotation Yrotation Xrotation
		JOINT LeftLeg
		{
			OFFSET 2.448110 -6.726130 0.000000 
			CHANNELS 3 Zrotation Yrotation Xrotation
			JOINT LeftFoot
			{
				OFFSET 2.562200 -7.039590 0.000000 
				CHANNELS 3 Zrotation Yrotation Xrotation
				JOINT LeftToeBase
				{
					OFFSET 0.157640 -0.433110 2.322550 
					CHANNELS 3 Zrotation Yrotation Xrotation
					End Site
					{
						OFFSET 0.000000 0.000000 0.000000 
					}
				}
			}
		}
	}
	JOINT RightUpLeg
	{
		OFFSET -1.305520 -1.794630 0.839290 
		CHANNELS 3 Zrotation Yrotation Xrotation
		JOINT RightLeg
		{
			OFFSET -2.542530 -6.985550 0.000000 
			CHANNELS 3 Zrotation Yrotation Xrotation
			JOINT RightFoot
			{
				OFFSET -2.568260 -7.056230 0.000000 
				CHANNELS 3 Zrotation Yrotation Xrotation
				JOINT RightToeBase
				{
					OFFSET -0.164730 -0.452590 2.363150 
					CHANNELS 3 Zrotation Yrotation Xrotation
					End Site
					{
						OFFSET 0.000000 0.000000 0.000000 
					}
				}
			}
		}
	}
	JOINT Spine
	{
		OFFSET 0.028270 2.035590 -0.193380 
		CHANNELS 3 Zrotation Yrotation Xrotation
		JOINT Spine1
		{
			OFFSET 0.056720 2.048850 -0.042750 
			CHANNELS 3 Zrotation Yrotation Xrotation
			JOINT Neck1
			{
				OFFSET -0.054170 1.746240 0.172020 
				CHANNELS 3 Zrotation Yrotation Xrotation
				JOINT Head
				{
					OFFSET 0.104070 1.761360 -0.123970 
					CHANNELS 3 Zrotation Yrotation Xrotation
					End Site
					{
						OFFSET 0.000000 0.000000 0.000000 
					}
				}
			}
			JOINT LeftArm
			{
				OFFSET 3.362410 1.200890 -0.311210 
				CHANNELS 3 Zrotation Yrotation Xrotation
				JOINT LeftForeArm
				{
					OFFSET 4.983000 -0.000000 -0.000000 
					CHANNELS 3 Zrotation Yrotation Xrotation
					JOINT LeftHand
					{
						OFFSET 3.483560 -0.000000 -0.000000 
						CHANNELS 3 Zrotation Yrotation Xrotation
						JOINT LeftHandIndex1
						{
							OFFSET 0.715260 -0.000000 -0.000000 
							CHANNELS 3 Zrotation Yrotation Xrotation
							End Site
							{
								OFFSET 0.000000 0.000000 0.000000 
							}
						}
					}
				}
			}
			JOINT RightArm
			{
				OFFSET -3.136600 1.374050 -0.404650 
				CHANNELS 3 Zrotation Yrotation Xrotation
				JOINT RightForeArm
				{
					OFFSET -5.241900 -0.000000 -0.000000 
					CHANNELS 3 Zrotation Yrotation Xrotation
					JOINT RightHand
					{
						OFFSET -3.444170 -0.000000 -0.000000 
						CHANNELS 3 Zrotation Yrotation Xrotation
						JOINT RightHandIndex1
						{
							OFFSET -0.622530 -0.000000 -0.000000 
							CHANNELS 3 Zrotation Yrotation Xrotation
							End Site
							{
								OFFSET 0.000000 0.000000 0.000000 
							}
						}
					}
				}
			}
		}
	}
}
MOTION
Frames: 18
Frame Time: 0.041667
0.349591 17.579531 -0.055813 -2.143830 0.458163 3.140160 -12.216976 -2.213815 -31.370810 -0.278015 7.132541 18.561223 -0.763156 6.714317 7.691215 0.726100 -5.444700 -15.181500 18.878974 4.838051 -34.397105 -0.514487 -8.539281 22.330130 -0.706043 -5.307021 19.612399 -0.080800 -1.833800 5.046600 1.504750 0.074601 -0.922161 1.987708 -0.457469 5.926098 3.656249 -1.355449 29.305718 0.475800 0.018200 10.760200 -98.157849 -11.994473 6.032605 2.947548 -7.883277 -0.015714 -0.369312 -0.529305 6.357207 -7.125000 0.000000 0.000000 93.958785 6.418573 9.713939 -9.741164 21.093269 -2.099672 0.792610 0.898363 30.398479 7.125000 0.000000 0.000000 
0.355579 17.318834 0.175354 -2.207524 0.352524 2.122946 -12.078827 -2.745999 -31.391456 0.067946 7.964391 20.932699 -0.788513 6.604888 6.971271 0.922900 -6.120500 -17.134500 19.156334 4.971742 -34.223059 -0.824086 -9.223752 24.490391 -0.750350 -3.229791 17.831499 -0.138600 -2.399600 6.611500 1.503626 0.113390 -0.919007 1.959157 -0.433023 5.745703 3.671134 -1.425863 29.759744 0.489700 -0.005800 10.954700 -98.248893 -11.966179 5.559235 2.676165 -7.325124 0.032851 -0.374881 -0.527244 6.670698 -7.125000 0.000000 0.000000 93.996636 6.380119 8.891065 -9.414047 20.553622 -1.966978 0.809459 0.890763 31.220188 7.125000 0.000000 0.000000 
0.359942 17.060674 0.381253 -2.209994 0.262149 1.033965 -12.022667 -3.404853 -31.751156 0.595650 9.079940 24.168396 -0.753498 6.354851 6.848112 1.016300 -6.414000 -17.990300 19.351902 5.366326 -34.324500 -1.357818 -10.237027 27.635506 -0.680501 -1.530758 15.131006 -0.236600 -3.130700 8.642800 1.494308 0.145597 -0.926276 1.942352 -0.411171 5.418999 3.702223 -1.496887 30.133534 0.505000 -0.028800 11.143300 -98.311967 -11.943868 5.096469 2.491115 -6.933959 0.065268 -0.378181 -0.524534 6.842760 -7.125000 0.000000 0.000000 94.074236 6.444911 8.054681 -9.119948 20.041436 -1.846676 0.830371 0.878894 32.067999 7.125000 0.000000 0.000000 
0.361261 16.812053 0.556505 -2.138281 0.198352 -0.048272 -12.019919 -4.201034 -32.492479 1.328912 10.409768 28.147788 -0.659074 5.858588 6.983780 0.906500 -6.067300 -16.979700 19.391040 6.098594 -34.801415 -2.149277 -11.520605 31.657669 -0.529303 -0.660178 12.017753 -0.400800 -4.064800 11.259000 1.477682 0.177959 -0.939195 1.950420 -0.391506 4.981546 3.714601 -1.565040 30.389504 0.501600 -0.050300 11.313800 -98.362667 -11.992317 4.634285 2.395698 -6.718030 0.082958 -0.379715 -0.520660 6.856416 -7.125000 0.000000 0.000000 94.203230 6.677270 7.174351 -8.858052 19.553953 -1.737020 0.856462 0.862448 32.971751 7.125000 0.000000 0.000000 
0.358420 16.563635 0.708316 -2.022255 0.096704 -1.015161 -11.995990 -5.075015 -33.616258 2.257177 11.834923 32.598707 -0.555583 5.275073 7.084845 0.604800 -4.978000 -13.845800 19.270246 7.228192 -35.716836 -3.171142 -12.942166 36.262282 -0.355649 -0.518842 9.030022 -0.615100 -5.019400 13.963800 1.456605 0.244076 -0.944791 1.988877 -0.359656 4.536767 3.710551 -1.627103 30.493598 0.481800 -0.070200 11.446500 -98.417888 -12.176909 4.191226 2.383699 -6.667295 0.089878 -0.382087 -0.515598 6.718303 -7.125000 0.000000 0.000000 94.382280 7.118128 6.305326 -8.641015 19.118720 -1.643039 0.886187 0.842672 33.908719 7.125000 0.000000 0.000000 
0.352433 16.317551 0.846833 -1.854630 -0.110986 -1.854813 -11.954613 -5.862238 -34.976265 3.314591 13.211317 37.144273 -0.479287 4.732287 6.882904 0.302500 -3.536400 -9.776000 18.984840 8.623712 -36.944654 -4.325271 -14.325441 40.984634 -0.212405 -0.693335 6.561390 -0.798000 -5.701700 15.921300 1.431026 0.371915 -0.932194 2.064679 -0.303509 4.144668 3.687763 -1.666714 30.418503 0.449700 -0.084000 11.505900 -98.488923 -12.472832 3.762996 2.457428 -6.787416 0.085380 -0.385187 -0.509584 6.464080 -7.125000 0.000000 0.000000 94.590553 7.711773 5.527908 -8.487243 18.776134 -1.572046 0.916211 0.821155 34.859302 7.125000 0.000000 0.000000 
0.344416 16.087805 0.981089 -1.643218 -0.461804 -2.581752 -11.905145 -6.419483 -36.344257 4.394417 14.414649 41.395372 -0.449149 4.321016 6.159924 0.113500 -2.172000 -5.981200 18.573477 10.109276 -38.247894 -5.471773 -15.523897 45.343828 -0.136346 -0.754252 4.774085 -0.913400 -6.089900 17.045400 1.401792 0.573125 -0.893538 2.171601 -0.217394 3.862117 3.639851 -1.670962 30.156116 0.404300 -0.087300 11.456500 -98.571740 -12.810477 3.343571 2.621093 -7.088064 0.067297 -0.387820 -0.503963 6.181583 -7.125000 0.000000 0.000000 94.797062 8.357230 4.999647 -8.414883 18.571708 -1.532204 0.941633 0.800946 35.707453 7.125000 0.000000 0.000000 
0.337516 15.892156 1.116460 -1.412856 -0.946529 -3.230967 -11.887959 -6.645234 -37.464882 5.382373 15.368897 45.027403 -0.470282 4.165480 5.068947 0.034700 -1.202600 -3.306400 18.153491 11.463304 -39.329150 -6.456083 -16.437174 48.889143 -0.114207 -0.623879 3.421225 -0.895700 -6.032000 16.877200 1.371581 0.831973 -0.822844 2.283909 -0.107627 3.747595 3.574634 -1.627286 29.801458 0.357600 -0.073700 11.332100 -98.666129 -13.145899 2.916585 2.853600 -7.524779 0.037045 -0.391042 -0.498606 6.002327 -7.125000 0.000000 0.000000 94.966309 8.992753 4.834136 -8.412356 18.500730 -1.520796 0.958876 0.784992 36.361298 7.125000 0.000000 0.000000 
0.334674 15.737605 1.255384 -1.203248 -1.494644 -3.865164 -11.919637 -6.551905 -38.191806 6.210486 16.072507 47.922969 -0.523421 4.240083 3.875248 0.031100 -1.139100 -3.131500 17.864052 12.460915 -39.938487 -7.196214 -17.055257 51.461059 -0.137810 -0.268867 2.375018 -0.801300 -5.713400 15.954900 1.347188 1.111168 -0.728863 2.377037 0.010798 3.766834 3.486377 -1.531072 29.473136 0.313600 -0.040200 11.181600 -98.779617 -13.427196 2.477090 3.119218 -8.022383 -0.002507 -0.394886 -0.492738 6.070286 -7.125000 0.000000 0.000000 95.050337 9.533193 5.173487 -8.478341 18.569321 -1.538523 0.965023 0.776634 36.647349 7.125000 0.000000 0.000000 
0.338327 15.615628 1.398265 -1.071440 -1.993092 -4.501474 -11.990124 -6.195947 -38.454831 6.802241 16.519528 49.919544 -0.586531 4.449866 2.848130 0.066300 -1.661900 -4.572100 17.806433 12.997269 -39.989882 -7.622364 -17.378408 52.907139 -0.166078 0.034604 1.650353 -0.657700 -5.187100 14.443100 1.333729 1.363351 -0.626198 2.407171 0.120828 3.868998 3.361085 -1.399859 29.304675 0.262400 0.010500 11.078900 -98.913419 -13.663161 2.044321 3.374007 -8.488654 -0.044628 -0.400280 -0.484735 6.525485 -7.125000 0.000000 0.000000 95.044332 9.987052 5.961999 -8.581696 18.724881 -1.573994 0.961532 0.775986 36.577690 7.125000 0.000000 0.000000 
0.349084 15.516890 1.540435 -1.034784 -2.365913 -5.137312 -12.068066 -5.735903 -38.442586 7.292754 16.857258 51.545694 -0.630309 4.590475 1.847855 0.112100 -2.158800 -5.944700 17.958262 13.097928 -39.756488 -7.912951 -17.572539 53.874953 -0.193264 0.294045 0.934809 -0.494200 -4.507300 12.508600 1.331467 1.553486 -0.530528 2.351867 0.210477 3.980385 3.235954 -1.263395 29.392389 0.221100 0.068800 11.082500 -99.073060 -13.891128 4.591228 3.573959 -8.896520 -0.074773 -0.387956 -0.498022 4.550339 -7.125000 0.000000 0.000000 94.951780 10.397918 7.118046 -8.691586 18.909786 -1.615680 0.951657 0.779819 36.239539 7.125000 0.000000 0.000000 
0.363088 15.536983 1.645363 -1.052717 -2.556409 -5.718484 -12.202881 -5.240929 -37.955226 7.613161 17.050497 52.604387 -0.643303 4.594658 0.787802 0.143700 -2.442900 -6.731400 18.269484 12.767022 -39.029772 -8.037689 -17.619930 54.274752 -0.216295 0.480792 0.192020 -0.357300 -3.840300 10.627900 1.335400 1.661702 -0.462439 2.231262 0.270208 4.032495 3.111545 -1.145581 29.775248 0.182800 0.126800 11.229900 -99.246303 -14.133318 6.881907 3.713086 -9.166817 -0.097374 -0.378167 -0.505541 3.321651 -7.125000 0.000000 0.000000 94.796302 10.808902 8.477590 -8.782460 19.070929 -1.652147 0.940526 0.783895 35.820615 7.125000 0.000000 0.000000 
0.379832 15.460367 1.779720 -1.115436 -2.601578 -6.135732 -12.225690 -4.991900 -37.913025 8.042118 17.324637 54.014679 -0.632311 4.513152 -0.334395 0.159700 -2.575000 -7.097600 18.478105 12.465612 -38.877705 -8.323281 -17.789474 55.201684 -0.236925 0.624005 -0.643032 -0.272100 -3.355400 9.269900 1.343113 1.704311 -0.427558 2.080474 0.304981 4.057319 3.030742 -1.069317 30.397318 0.163000 0.175200 11.508900 -99.420181 -14.431809 8.856312 3.794271 -9.312052 -0.112331 -0.370796 -0.508018 2.818417 -7.125000 0.000000 0.000000 94.621425 11.289033 9.890653 -8.847006 19.190134 -1.679554 0.930830 0.785594 35.486546 7.125000 0.000000 0.000000 
0.394445 15.386897 1.909409 -1.192152 -2.538825 -6.346642 -12.217647 -4.898376 -38.023217 8.449891 17.579756 55.340450 -0.620268 4.472201 -1.389654 0.180300 -2.734800 -7.541300 18.614392 12.181508 -38.953052 -8.647875 -17.984103 56.247647 -0.261025 0.754925 -1.521126 -0.228400 -3.076300 8.491300 1.351563 1.694527 -0.428139 1.942372 0.316516 4.046314 3.037536 -1.040045 31.145965 0.181700 0.210700 11.870600 -99.587145 -14.760694 10.531900 3.848045 -9.399496 -0.125483 -0.363260 -0.507763 2.839605 -7.125000 0.000000 0.000000 94.465922 11.827153 11.233489 -8.911745 19.304264 -1.706659 0.923625 0.782883 35.335478 7.125000 0.000000 0.000000 
0.404288 15.324285 2.030675 -1.267053 -2.412695 -6.376969 -12.184718 -4.939996 -38.362136 8.937353 17.878176 56.908901 -0.599991 4.443198 -2.611431 0.201300 -2.888900 -7.969500 18.653953 12.000584 -39.320865 -9.106198 -18.261400 57.715905 -0.314899 1.038077 -2.676358 -0.222000 -3.033200 8.371300 1.358735 1.649965 -0.459188 1.839748 0.310510 3.982749 3.143329 -1.053662 31.857489 0.241500 0.232800 12.221900 -99.726727 -15.049660 12.045968 3.923887 -9.532615 -0.145933 -0.352612 -0.507925 3.008818 -7.125000 0.000000 0.000000 94.371261 12.369183 12.409004 -9.017935 19.476037 -1.748701 0.918086 0.775966 35.343476 7.125000 0.000000 0.000000 
0.408652 15.280954 2.140779 -1.345071 -2.263854 -6.263309 -12.138016 -5.003040 -38.723379 9.336070 18.112683 58.178250 -0.577908 4.430923 -3.629051 0.218100 -3.006100 -8.295700 18.668489 11.853010 -39.724345 -9.504094 -18.492767 58.975511 -0.370236 1.282907 -3.736477 -0.217800 -3.004000 8.289900 1.363751 1.587840 -0.502509 1.769329 0.293210 3.918740 3.334302 -1.103134 32.450798 0.333900 0.243100 12.521200 -99.826852 -15.285441 13.493902 4.049962 -9.769584 -0.177388 -0.338821 -0.510541 3.004137 -7.125000 0.000000 0.000000 94.368192 12.897657 13.357020 -9.197574 19.756803 -1.817655 0.912989 0.767743 35.367070 7.125000 0.000000 0.000000 
0.409565 15.182419 2.261537 -1.429417 -2.122573 -6.079781 -12.030187 -5.092908 -39.266450 9.682485 18.314433 59.267807 -0.556115 4.408460 -4.327043 0.231100 -3.094300 -8.541500 18.638992 11.770268 -40.331575 -9.864884 -18.703220 60.110346 -0.422856 1.520550 -4.533073 -0.224900 -3.052700 8.425400 1.371531 1.518990 -0.547045 1.746999 0.267885 3.856977 3.571676 -1.166896 32.874358 0.445000 0.245400 12.733100 -99.906233 -15.431129 14.938598 4.241774 -10.140560 -0.221494 -0.322706 -0.516339 2.530204 -7.125000 0.000000 0.000000 94.444916 13.368851 14.082941 -9.473277 20.180560 -1.922488 0.907890 0.760059 35.208595 7.125000 0.000000 0.000000 
0.405506 15.184245 2.350229 -1.531842 -2.002818 -5.872339 -11.961051 -5.044253 -39.374431 9.805747 18.379339 59.653787 -0.541347 4.400525 -4.798791 0.239200 -3.147700 -8.690200 18.740886 11.603799 -40.438180 -10.004506 -18.773041 60.543362 -0.461978 1.651114 -5.175836 -0.227200 -3.067900 8.467700 1.383243 1.457405 -0.583976 1.757369 0.241559 3.807650 3.792500 -1.236995 33.124912 0.541000 0.241000 12.853000 -99.975605 -15.484544 16.403138 4.499050 -10.642818 -0.278951 -0.303936 -0.525940 1.454715 -7.125000 0.000000 0.000000 94.592748 13.750883 14.629282 -9.857461 20.765178 -2.069724 0.901349 0.757646 34.703928 7.125000 0.000000 0.000000 
